<?xml version="1.0"?>
<svg version="1.1" xmlns="http://www.w3.org/2000/svg" width="70" height="50" style=""><path fill="#120987" d="M15.76904296875,31.2255859375l0-1.9287109375q0-2.001953125,0.067138671875-3.973388671875t0.115966796875-3.973388671875q0-0.37841796875-0.0244140625-0.84228515625q-0.01220703125-0.13427734375-0.01220703125-0.25634765625q0-0.30517578125,0.048828125-0.59814453125q0.06103515625-0.390625,0.299072265625-0.67138671875t0.787353515625-0.28076171875q0.45166015625,0,0.689697265625,0.09765625t0.335693359375,0.286865234375t0.10986328125,0.47607421875t0.01220703125,0.665283203125q0,2.0263671875-0.048828125,4.06494140625q-0.03662109375,1.35498046875-0.03662109375,2.7099609375q0,0.68359375,0.01220703125,1.3671875q0.0244140625,2.0263671875,0.189208984375,4.052734375t0.555419921875,4.00390625q1.220703125-0.048828125,2.44140625-0.1220703125t2.44140625-0.0732421875q0.1220703125,0,0.347900390625,0.0244140625t0.45166015625,0.08544921875t0.384521484375,0.15869140625t0.15869140625,0.28076171875q0,0.1220703125-0.10986328125,0.20751953125t-0.20751953125,0.13427734375l-0.0244140625,0q-0.1953125,0.09765625-0.775146484375,0.189208984375t-1.318359375,0.140380859375t-1.55029296875,0.08544921875t-1.52587890625,0.06103515625t-1.239013671875,0.03662109375t-0.64697265625,0.01220703125l-0.10986328125,0q-0.29296875,0-0.6591796875-0.09765625q-0.439453125-0.1220703125-0.54931640625-0.47607421875q-0.2197265625-0.9033203125-0.347900390625-1.873779296875t-0.1953125-1.971435546875t-0.067138671875-2.001953125z M26.848999023438,32.65380859375q0-1.123046875,0.262451171875-2.203369140625t0.445556640625-2.154541015625q0.048828125-0.28076171875,0.384521484375-0.347900390625t0.567626953125-0.067138671875q0.40283203125,0,0.64697265625,0.1220703125q0.09765625,0.048828125,0.18310546875,0.10986328125t0.08544921875,0.15869140625q0,1.0498046875-0.250244140625,2.05078125t-0.250244140625,2.1240234375q0,0.37841796875,0.054931640625,0.714111328125t0.103759765625,0.665283203125l0.0732421875,0.35400390625q0,0.09765625,0.01220703125,0.1708984375t0.03662109375,0.1708984375q0,0.2197265625-0.311279296875,0.299072265625t-0.543212890625,0.079345703125q-0.35400390625,0-0.653076171875-0.140380859375t-0.469970703125-0.482177734375l-0.1708984375-0.35400390625q-0.146484375-0.28076171875-0.146484375-0.628662109375t-0.06103515625-0.640869140625z M27.630249023438,25.30517578125l0-0.23193359375q0-0.57373046875,0.286865234375-1.025390625t0.860595703125-0.45166015625q0.0732421875,0,0.140380859375,0.01220703125t0.140380859375,0.01220703125q0.146484375,0.0244140625,0.384521484375,0.115966796875t0.238037109375,0.286865234375l0,0.0244140625q-0.048828125,0.09765625-0.06103515625,0.201416015625t-0.06103515625,0.177001953125l0.0244140625-0.0244140625q-0.146484375,0.37841796875-0.238037109375,0.6103515625t-0.201416015625,0.372314453125t-0.274658203125,0.201416015625t-0.469970703125,0.06103515625q-0.048828125,0-0.1708984375-0.01220703125t-0.262451171875-0.048828125t-0.238037109375-0.09765625t-0.09765625-0.18310546875z M32.179443359375,37.2802734375q0-0.35400390625,0.030517578125-0.74462890625t0.054931640625-0.732421875l0.0732421875-1.8310546875q0.1220703125-2.197265625,0.299072265625-4.3212890625t0.299072265625-4.296875q0.0732421875-1.1962890625,0.10986328125-2.349853515625t0.10986328125-2.349853515625q-0.048828125-0.09765625-0.048828125-0.13427734375q0-0.1708984375,0.128173828125-0.2685546875t0.299072265625-0.164794921875t0.360107421875-0.091552734375t0.286865234375-0.0244140625l0.28076171875,0q0.37841796875,0.048828125,0.54931640625,0.238037109375t0.2197265625,0.45166015625t0.0244140625,0.5615234375t-0.0244140625,0.555419921875q0,1.77001953125-0.08544921875,3.607177734375t-0.1953125,3.6865234375t-0.201416015625,3.69873046875t-0.091552734375,3.656005859375l0,0.8544921875q0,0.57373046875-0.323486328125,0.7568359375t-0.897216796875,0.18310546875q-0.50048828125,0-0.87890625-0.2197265625t-0.37841796875-0.72021484375z M37.778442382812,30.224609375q0-0.35400390625,0.201416015625-0.4638671875t0.506591796875-0.10986328125q0.50048828125,0,0.762939453125,0.189208984375t0.262451171875,0.665283203125q0,0.57373046875,0.08544921875,1.434326171875t0.250244140625,1.67236328125t0.390625,1.397705078125t0.469970703125,0.5859375q0.45166015625,0,0.799560546875-0.69580078125t0.6103515625-1.708984375t0.45166015625-2.178955078125t0.262451171875-2.081298828125q0.048828125-0.50048828125,0.238037109375-0.726318359375t0.689697265625-0.225830078125q0.57373046875,0,0.836181640625,0.47607421875t0.335693359375,1.171875q0.06103515625,0.59814453125,0.06103515625,1.2451171875l0,0.20751953125l0,0.48828125q0,0.4638671875,0.01220703125,0.830078125l0.35400390625,7.48291015625l0.048828125,1.2451171875q0.0244140625,0.1708984375,0.03662109375,0.323486328125t0.01220703125,0.323486328125q0,0.69580078125-0.299072265625,0.897216796875t-0.970458984375,0.201416015625q-0.146484375,0-0.372314453125-0.0244140625t-0.439453125-0.09765625t-0.3662109375-0.201416015625t-0.152587890625-0.323486328125l0.048828125-0.1220703125q0.06103515625-0.732421875,0.06103515625-1.5380859375l0-0.25634765625q-0.01220703125-0.9521484375-0.06103515625-1.9287109375t-0.10986328125-1.953125t-0.06103515625-1.8798828125q-0.1708984375,0.37841796875-0.396728515625,0.78125t-0.52490234375,0.726318359375t-0.677490234375,0.537109375t-0.8544921875,0.213623046875q-0.69580078125,0-1.1474609375-0.3662109375t-0.701904296875-0.9521484375t-0.360107421875-1.312255859375t-0.146484375-1.45263671875t-0.048828125-1.385498046875t-0.09765625-1.11083984375z"/><path fill="#" d=""/></svg>
